<?xml version="1.0" standalone="no"?>
<!DOCTYPE svg PUBLIC "-//W3C//DTD SVG 20010904//EN"
 "http://www.w3.org/TR/2001/REC-SVG-20010904/DTD/svg10.dtd">
<svg version="1.0" xmlns="http://www.w3.org/2000/svg"
 width="1280.000000pt" height="1248.000000pt" viewBox="0 0 1280.000000 1248.000000"
 preserveAspectRatio="xMidYMid meet">
<metadata>
Created by potrace 1.15, written by Peter Selinger 2001-2017
</metadata>
<g transform="translate(0.000000,1248.000000) scale(0.100000,-0.100000)"
fill="#000000" stroke="none">
<path d="M8936 11941 c-5 -8 -1 -260 24 -1425 6 -258 9 -471 7 -472 -2 -2
-110 134 -241 301 -131 168 -241 305 -245 305 -4 0 -15 -6 -24 -12 -16 -12
-11 -41 68 -393 47 -208 84 -382 83 -386 -2 -4 -286 136 -631 313 -592 302
-629 319 -642 301 -8 -10 -15 -20 -15 -23 0 -5 225 -277 714 -864 l41 -49
-190 7 c-105 4 -638 25 -1185 46 -547 21 -996 38 -996 37 -1 -1 -4 -13 -6 -27
-4 -30 -65 -14 710 -191 342 -78 622 -145 622 -149 0 -4 -14 -13 -31 -20 -52
-22 -255 -146 -347 -212 -125 -90 -251 -197 -372 -314 l-105 -102 -131 33
c-428 108 -804 51 -1012 -154 -44 -42 -89 -101 -126 -165 l-58 -98 -42 7
c-655 106 -1357 47 -1996 -170 -1353 -460 -2359 -1564 -2699 -2964 -33 -133
-72 -358 -93 -536 -20 -171 -17 -684 5 -865 62 -499 183 -919 390 -1352 125
-263 308 -553 503 -798 138 -172 450 -485 623 -623 788 -628 1729 -949 2711
-924 436 11 796 73 1200 206 1040 343 1879 1059 2386 2036 602 1160 615 2543
36 3720 -117 238 -251 458 -398 653 l-63 84 39 63 c105 172 125 237 125 405 0
99 -5 142 -23 205 -31 111 -139 323 -218 427 -36 49 -62 93 -58 99 11 18 162
127 237 171 155 90 357 156 547 179 177 20 186 49 -89 -316 -237 -316 -240
-320 -221 -339 19 -19 23 -17 302 170 155 104 295 197 310 207 l27 18 -29 -73
c-15 -40 -104 -266 -198 -503 -314 -795 -332 -841 -332 -853 0 -6 9 -16 21
-22 16 -9 23 -8 32 4 49 65 1253 1573 1255 1571 3 -2 38 -268 187 -1415 68
-531 127 -980 130 -998 5 -29 10 -33 33 -30 l27 3 32 335 c18 184 46 468 63
630 16 162 48 486 70 719 21 233 41 426 44 428 2 3 192 -160 422 -361 566
-497 552 -524 151 305 -169 348 -305 634 -302 637 2 2 244 -48 537 -113 981
-215 999 -219 1009 -204 5 8 8 21 6 28 -1 8 -190 146 -419 305 -229 160 -415
293 -413 296 2 3 121 41 264 85 143 44 261 82 261 85 0 3 -209 75 -465 160
-256 85 -465 157 -465 160 0 3 338 190 751 415 413 226 755 413 761 416 13 8
-8 49 -26 49 -12 0 -560 -142 -1344 -350 -185 -49 -338 -87 -340 -85 -2 2 112
189 253 415 154 247 255 417 251 426 -3 8 -12 17 -20 20 -7 3 -174 -90 -371
-206 -196 -117 -359 -209 -363 -206 -3 4 -14 176 -24 384 -10 207 -20 383 -23
390 -2 6 -15 12 -27 12 -20 0 -40 -36 -167 -313 -233 -502 -214 -465 -222
-434 -4 15 -99 437 -210 937 -196 879 -203 910 -225 910 -13 0 -25 -4 -28 -9z"/>
</g>
</svg>
