<?xml version="1.0" encoding="utf-8"?>
<svg viewBox="0 0 500 500" xmlns="http://www.w3.org/2000/svg">
  <g id="layer1" transform="matrix(1, 0, 0, 1, -142.46145629882812, -266.0299377441406)">
    <g id="g9893">
      <path transform="translate(-17.85713,318.6479)" id="path17976" d="M 573 121 L 562 248 L 419 345 L 399.832 323.218 C 404.408 321.429 408.577 319.718 412.201 318.128 C 429.652 310.473 437.255 304.915 449.514 296.486 C 462.398 287.629 478.048 274.638 487.574 265.889 C 494.683 259.36 498.349 253.499 503.619 248.725 C 508.282 244.5 512.61 243.213 517.425 238.278 C 523.66 231.885 532.224 223.68 537.201 211.785 C 543.61 196.468 547.304 163.799 548.395 150.591 C 549.023 142.978 549.601 140.432 547.648 134.919 C 546.733 132.336 545.204 129.507 543.335 126.641 C 543.203 121.943 543 119 543 119 Z" style="fill:#ffc701;fill-opacity:1;fill-rule:evenodd;stroke:none;stroke-width:1px;stroke-linecap:butt;stroke-linejoin:miter;stroke-opacity:1"/>
      <path id="path18863" d="M 555.142 439.648 L 544.142 566.648 L 401.142 663.648 L 381.975 641.867 C 386.551 640.077 390.72 638.366 394.344 636.776 C 411.795 629.12 419.397 623.563 431.657 615.134 C 444.54 606.277 460.191 593.286 469.717 584.537 C 476.826 578.008 480.492 572.147 485.762 567.373 C 490.425 563.148 494.753 561.861 499.567 556.925 C 505.803 550.532 514.366 542.328 519.344 530.433 C 525.753 515.116 529.447 482.447 530.538 469.239 C 531.166 461.626 531.744 459.08 529.791 453.567 C 528.876 450.983 527.346 448.154 525.477 445.288 C 525.345 440.591 525.142 437.648 525.142 437.648 Z" style="opacity:0.7;fill:black;fill-opacity:1;fill-rule:evenodd;stroke:none;stroke-width:1px;stroke-linecap:butt;stroke-linejoin:miter;stroke-opacity:1"/>
    </g>
    <g id="g2783">
      <path id="path6424" d="M 538.742 411.074 L 522.453 440.986 C 520.049 437.783 517.39 434.665 514.866 431.925 C 511.954 428.765 508.399 425.314 504.82 422.296 L 519.911 399.654 Z M 210.306 606.149 C 101.217 578.495 71.25 511.094 71.25 511.094 C 71.25 511.094 61.456 492.303 69.647 486.065 C 77.838 479.827 111.63 475.945 133.976 476.751 C 156.322 477.557 171.638 499.59 274.748 506.891 C 377.858 514.191 424.463 480.162 439.294 470.941 C 441.065 469.84 443.042 468.767 445.151 467.73 C 446.408 476.307 447.608 484.8 447.702 490.881 C 447.881 502.471 448.053 509.604 445.463 519.985 C 442.463 532.008 430.334 549.134 429.045 558.791 C 428.187 565.218 429.827 570.391 432.03 573.716 C 432.476 574.39 432.985 574.997 433.546 575.536 C 428.452 579.464 423.721 583.025 419.717 586.03 C 418.363 587.046 417.088 588.001 415.876 588.903 C 370.549 603.925 285.643 625.247 210.306 606.149 Z" style="fill:#ffc701;fill-opacity:1;fill-rule:evenodd;stroke:none;stroke-width:2;stroke-linecap:butt;stroke-linejoin:miter;stroke-miterlimit:4;stroke-dasharray:none;stroke-opacity:1"/>
      <path id="path1895" d="M 299.505 516.228 C 209.978 518.656 174.771 495.393 136.38 488.416 C 116.375 484.781 87.946 484.212 68.661 487.01 C 68.962 486.678 69.29 486.355 69.661 486.072 C 77.852 479.834 111.628 475.953 133.974 476.76 C 156.32 477.566 171.645 499.584 274.755 506.885 C 377.865 514.185 424.455 480.168 439.286 470.947 C 441.06 469.845 443.039 468.77 445.151 467.732 C 445.571 470.598 445.985 473.454 446.353 476.215 C 429.044 489.28 397.765 513.534 299.505 516.228 Z M 517.005 404.01 C 520.469 416.429 519.974 426.289 516.908 434.194 C 516.223 433.414 515.54 432.656 514.866 431.925 C 511.953 428.764 508.397 425.312 504.816 422.293 Z" style="fill:white;fill-opacity:1;fill-rule:evenodd;stroke:none;stroke-width:2;stroke-linecap:butt;stroke-linejoin:miter;stroke-miterlimit:4;stroke-dasharray:none;stroke-opacity:1;opacity:0.4"/>
      <path id="path9086" d="M 106.96213,554.70796 C 128.49383,573.41467 161.44348,593.76255 210.30593,606.14918 C 222.07021,609.13143 234.0755,611.11073 246.11929,612.29962 L 284.83188,604.45269 C 220.5418,614.51673 142.31641,575.18761 106.96213,554.70796 z " style="opacity:0.4;fill:black;fill-opacity:1;fill-rule:evenodd;stroke:none;stroke-width:1px;stroke-linecap:butt;stroke-linejoin:miter;stroke-opacity:1"/>
    </g>
    <g id="g9941">
      <path transform="translate(-17.85713,318.6479)" id="path12644" d="M 585 116 C 585 128 595 157 604 172 C 613 187 625 171 641 225 C 657 279 602 351 573 379 C 550.089 401.093 421 469 320 438 C 268.85 422.3 242.578 393.007 229.624 368.955 C 231.944 368.143 234.354 367.365 236.828 366.636 C 253.184 361.816 275.534 361.826 300.26 355.442 C 320.976 350.094 351.568 340.595 377.511 331.461 C 407.688 327.759 435.796 321.863 455 313 C 520 283 555 203 561 189 C 567 175 546 120 546 120 C 547 120 585 104 585 116 Z M 219 331 C 219.777 332.554 226.703 333.957 237.838 334.989 C 235.246 335.473 232.678 336.055 230.111 336.785 C 226.392 337.843 222.632 339.006 218.944 340.259 C 217.487 332.845 217.987 328.975 219 331 Z" style="opacity:1;fill:#ffc701;fill-opacity:1;fill-rule:evenodd;stroke:none;stroke-width:2;stroke-linecap:butt;stroke-linejoin:miter;stroke-miterlimit:4;stroke-dasharray:none;stroke-opacity:1"/>
      <path id="path8981" d="M 468.131 633.638 C 403.224 681.106 258.555 715.446 217.756 697.544 C 217.752 697.539 217.728 697.549 217.724 697.544 C 217.238 696.814 216.78 696.081 216.318 695.356 C 216.31 695.344 216.295 695.337 216.287 695.325 C 215.805 694.568 215.336 693.795 214.881 693.044 C 214.454 692.341 214.034 691.646 213.631 690.95 C 213.595 690.889 213.572 690.824 213.537 690.763 C 213.155 690.101 212.774 689.448 212.412 688.794 C 212.396 688.765 212.397 688.729 212.381 688.7 C 212.345 688.635 212.291 688.577 212.256 688.513 C 212.089 688.209 211.925 687.906 211.763 687.604 C 214.083 686.792 216.495 686.013 218.97 685.284 C 235.327 680.464 257.677 680.473 282.403 674.09 C 303.132 668.738 333.752 659.23 359.706 650.09 C 389.859 646.388 417.94 640.495 437.131 631.638 C 486.499 608.852 518.53 557.285 533.724 527.638 C 528.807 553.796 513.821 600.222 468.131 633.638 Z M 201.068 658.763 L 201.037 658.638 C 199.646 651.403 200.131 647.638 201.131 649.638 C 201.909 651.193 208.852 652.598 220.013 653.631 C 217.41 654.116 214.832 654.7 212.254 655.433 C 208.542 656.489 204.79 657.649 201.109 658.9 Z" style="opacity:0.6;fill:black;fill-opacity:1;fill-rule:evenodd;stroke:none;stroke-width:2;stroke-linecap:butt;stroke-linejoin:miter;stroke-miterlimit:4;stroke-dasharray:none;stroke-opacity:1"/>
      <path id="path17089" d="M 559.79937,430.17885 C 558.18509,430.20703 556.38497,430.42195 554.48687,430.74135 C 560.75792,449.99636 590.83405,543.70808 588.14312,561.6476 C 585.14312,581.6476 553.30943,654.34782 501.14312,685.6476 C 466.14312,706.6476 390.14312,739.6476 363.14312,744.6476 C 346.05557,747.81196 312.61613,752.46521 286.48687,751.11635 C 291.4351,753.10006 296.63167,754.95597 302.14312,756.6476 C 403.14312,787.6476 532.23216,719.74031 555.14312,697.6476 C 584.14312,669.6476 639.14312,597.6476 623.14312,543.6476 C 607.14312,489.6476 595.14312,505.6476 586.14312,490.6476 C 577.14312,475.6476 567.14312,446.6476 567.14312,434.6476 C 567.14312,431.2726 564.14254,430.10304 559.79937,430.17885 z " style="opacity:0.4;fill:black;fill-opacity:1;fill-rule:evenodd;stroke:none;stroke-width:1px;stroke-linecap:butt;stroke-linejoin:miter;stroke-opacity:1"/>
    </g>
    <g id="g9903">
      <path id="path1933" d="M 533.143 448.648 C 533.143 448.648 531.6 450.191 529.51 452.813 C 526.905 446.171 520.544 438.088 514.866 431.925 C 512.745 429.623 510.283 427.168 507.719 424.837 C 510.827 420.158 512.918 416.445 513.143 414.648 C 514.143 406.648 540.143 430.648 541.143 437.648 C 542.143 444.648 533.143 447.648 533.143 448.648 Z M 478.143 597.648 C 434.552 632.244 333.512 684.553 234.647 682.032 C 248.508 679.93 264.857 678.619 282.403 674.09 C 313.903 665.957 368.244 648.226 394.344 636.776 C 411.795 629.12 419.397 623.563 431.657 615.134 C 444.54 606.277 460.191 593.286 469.717 584.537 C 476.826 578.008 480.492 572.147 485.762 567.373 C 490.425 563.148 494.753 561.861 499.567 556.925 C 505.803 550.532 514.366 542.328 519.344 530.433 C 521.418 525.476 523.208 518.702 524.717 511.358 C 526.629 533.448 520.28 564.206 478.143 597.648 Z M 109.143 639.648 C 74.143 599.648 94.143 573.648 94.143 573.648 C 94.143 573.648 114.13 570.758 122.143 571.648 C 132.143 568.648 179.143 571.648 223.143 573.648 C 271.851 572.69 390.413 521.36 447.539 487.218 C 447.628 488.514 447.684 489.74 447.702 490.881 C 447.881 502.471 448.053 509.604 445.463 519.985 C 442.463 532.008 430.334 549.134 429.045 558.791 C 428.187 565.218 429.827 570.391 432.03 573.716 C 432.477 574.39 432.985 574.997 433.546 575.536 C 428.452 579.464 423.721 583.025 419.717 586.03 C 405.431 596.753 400.031 600.571 382.403 608.418 C 355.861 620.233 298.152 638.762 267.478 646.478 C 244.953 652.143 228.591 650.786 212.254 655.433 C 207.139 656.888 201.947 658.541 196.973 660.356 C 195.03 660.04 193.365 660.355 190.085 660.657 C 183.163 661.294 169.645 665.49 157.995 665.881 C 156.893 665.918 155.739 665.92 154.545 665.892 C 138.78 659.406 123.55 650.776 109.143 639.648 Z" style="fill:#ffc701;fill-opacity:1;fill-rule:evenodd;stroke:none;stroke-width:2;stroke-linecap:butt;stroke-linejoin:miter;stroke-miterlimit:4;stroke-dasharray:none;stroke-opacity:1"/>
      <path id="path7201" d="M 520.382 415.357 C 518.153 420.426 515.707 425.31 513.065 430.018 C 511.395 428.294 509.579 426.527 507.708 424.827 C 510.816 420.149 512.907 416.435 513.132 414.638 C 513.257 413.638 513.792 413.14 514.6 413.045 C 515.901 412.891 517.971 413.817 520.382 415.357 Z M 326.507 556.42 C 262.007 581.545 230.772 585.584 156.382 583.607 C 124.126 582.75 104.184 578.283 93.225 575.076 C 93.766 574.166 94.132 573.638 94.132 573.638 C 94.132 573.638 114.119 570.748 122.132 571.638 C 132.132 568.638 179.132 571.638 223.132 573.638 C 271.843 572.681 390.416 521.345 447.538 487.203 C 447.627 488.504 447.684 489.735 447.702 490.881 C 447.744 493.584 447.785 496.044 447.791 498.36 C 409.254 524.646 364.283 541.704 326.507 556.42 Z" style="opacity:0.4;fill:white;fill-opacity:1;fill-rule:evenodd;stroke:none;stroke-width:2;stroke-linecap:butt;stroke-linejoin:miter;stroke-miterlimit:4;stroke-dasharray:none;stroke-opacity:1"/>
      <path id="path4646" d="M 478.143 597.648 C 434.552 632.244 333.511 684.554 234.646 682.032 C 248.507 679.93 264.857 678.62 282.403 674.09 C 313.903 665.957 368.244 648.226 394.344 636.776 C 411.795 629.12 419.397 623.563 431.657 615.134 C 444.54 606.277 460.191 593.286 469.717 584.537 C 476.826 578.008 480.492 572.147 485.762 567.373 C 490.425 563.148 494.753 561.861 499.567 556.925 C 505.803 550.532 514.366 542.328 519.344 530.433 C 521.418 525.476 523.208 518.701 524.717 511.357 C 526.629 533.447 520.281 564.205 478.143 597.648 Z M 109.143 639.648 C 108.254 638.632 107.431 637.615 106.612 636.617 C 134.767 644.729 159.046 657.84 202.357 658.48 C 200.543 659.084 198.744 659.71 196.973 660.356 C 195.03 660.04 193.365 660.355 190.085 660.657 C 183.163 661.294 169.645 665.49 157.995 665.881 C 156.892 665.918 155.739 665.92 154.544 665.892 C 138.78 659.406 123.55 650.776 109.143 639.648 Z" style="opacity:0.4;fill:black;fill-opacity:1;fill-rule:evenodd;stroke:none;stroke-width:1px;stroke-linecap:butt;stroke-linejoin:miter;stroke-opacity:1"/>
    </g>
    <g id="g9946">
      <path id="path23294" d="M 534.47367,391.42537 C 528.72367,389.92537 508.71616,405.72925 509.06846,411.02017 C 509.42029,416.30405 528.53454,433.43637 540.64281,437.57407 C 544.64281,438.57407 566.64281,436.57407 567.64281,432.57407 C 568.64281,428.57407 568.64281,411.57407 564.64281,407.57407 C 560.64281,403.57407 541.16441,393.17078 534.47367,391.42537 z " style="fill:#884a13;fill-opacity:1;fill-rule:evenodd;stroke:none;stroke-width:4;stroke-linecap:butt;stroke-linejoin:miter;stroke-miterlimit:4;stroke-dasharray:none;stroke-opacity:1"/>
      <path id="path22407" d="M 534.47374,391.42502 C 528.72374,389.92502 508.71623,405.7289 509.06853,411.01982 C 509.42036,416.3037 528.53461,433.43602 540.64288,437.57372 C 544.64288,438.57372 566.64288,436.57372 567.64288,432.57372 C 568.64288,428.57372 568.64288,411.57372 564.64288,407.57372 C 560.64288,403.57372 541.16448,393.17043 534.47374,391.42502 z " style="fill:#884a13;fill-opacity:1;fill-rule:evenodd;stroke:none;stroke-width:1px;stroke-linecap:butt;stroke-linejoin:miter;stroke-opacity:1"/>
      <path id="path25958" d="M 533.23672,391.3354 C 526.30206,391.85508 508.75019,406.06266 509.08047,411.0229 C 509.222,413.14841 512.41917,417.17996 516.95547,421.5229 C 517.24178,413.18494 521.37892,401.08827 540.67422,393.7729 C 538.17765,392.66554 536.00097,391.82417 534.48672,391.42915 C 534.12734,391.3354 533.69903,391.30075 533.23672,391.3354 z " style="opacity:0.3;fill:white;fill-opacity:1;fill-rule:evenodd;stroke:none;stroke-width:1px;stroke-linecap:butt;stroke-linejoin:miter;stroke-opacity:1"/>
      <path id="path26854" d="M 564.58087,407.52257 C 564.73328,425.7813 549.04695,433.48138 538.20587,436.61632 C 539.04145,436.98636 539.85952,437.31721 540.64337,437.58507 C 544.64338,438.58507 566.64337,436.58507 567.64337,432.58507 C 568.64338,428.58507 568.64337,411.58507 564.64337,407.58507 C 564.62587,407.56758 564.59896,407.54031 564.58087,407.52257 z " style="opacity:0.4;fill:black;fill-opacity:1;fill-rule:evenodd;stroke:none;stroke-width:1px;stroke-linecap:butt;stroke-linejoin:miter;stroke-opacity:1"/>
    </g>
  </g>
</svg>