<?xml version="1.0" encoding="utf-8"?>
<svg viewBox="0 0 600 600" xmlns="http://www.w3.org/2000/svg">
  <path id="path1364" style="fill:#008000;stroke-width:0.666996" d="M 186.634 32.051 C 186.485 32.047 186.333 32.048 186.183 32.057 C 179.792 32.471 178.456 39.829 178.721 44.956 C 178.582 57.318 176.965 70.159 180.771 82.144 C 186.656 97.146 196.084 110.553 207.139 122.247 C 300.818 127.322 289.637 153.418 301.325 75.602 C 301.575 67.524 294.575 62.074 288.282 58.309 C 276.127 49.717 262.27 42.784 247.152 41.777 C 227.906 39.567 207.829 40.457 189.677 32.718 C 188.684 32.41 187.677 32.08 186.634 32.051 L 186.634 32.051 Z" transform="matrix(1, 0, 0, 1, 0, -1.4210854715202004e-14)"/>
  <path id="path1056" style="fill:#552200;stroke-width:0.666996" d="M 300.592 18.508 C 290.021 33.75 284.196 51.712 281.75 69.947 C 279.273 88.637 278.083 107.678 280.025 126.467 C 281.456 135.287 293.858 140.966 300.617 134.048 C 307.67 127.711 305.636 117.472 307.015 109.1 C 308.791 88.572 315.972 68.349 327.782 51.529 C 331.215 47.456 331.602 40.868 327.029 37.466 C 321.724 33.634 315.602 30.716 311.722 25.207 C 308.787 21.693 305.885 18.152 302.964 14.626 C 302.173 15.92 301.383 17.214 300.592 18.508 L 300.592 18.508 Z" transform="matrix(1, 0, 0, 1, 0, -1.4210854715202004e-14)"/>
  <path style="fill:#ff0000;stroke-width:0.666996" d="M 157.623 318.86 C 143.657 300.105 131.728 269 126.144 236.779 C 122.337 214.817 122.387 177.958 126.241 165.41 C 136.723 131.273 161.502 108.134 195.106 101.101 C 218.556 96.193 246.787 101.361 275.006 115.729 L 291.404 124.078 L 300.553 117.209 C 315.061 106.318 324.982 103.222 347.913 102.432 C 364.358 101.865 378.285 103.464 390.436 107.477 C 392.345 115.541 396.848 126.48 397.177 134.873 C 397.606 145.823 395.972 158.582 392.673 167.155 C 389.92 174.309 386.377 178.572 380.661 184.047 C 374.069 190.361 366.117 196.071 354.233 202.293 C 345.676 205.286 333.753 210.177 323.39 214.909 C 306.136 220.979 286.794 227.212 272.928 233.597 C 253.498 242.545 236.014 250.127 222.628 261.375 C 210.442 271.614 202.708 281.983 194.474 297.035 C 188.708 307.579 181.827 324.26 176.756 339.096 C 169.7 333.186 163.211 326.365 157.623 318.86 Z" id="path1054" transform="matrix(1, 0, 0, 1, 0, -1.4210854715202004e-14)"/>
</svg>